<svg width="24" height="24" viewBox="0 0 24 24" fill="none" xmlns="http://www.w3.org/2000/svg">
<g clip-path="url(#clip0_11727_43169)">
<path d="M12 22C17.4706 22 22 17.4608 22 12C22 6.52941 17.4608 2 11.9902 2C6.52941 2 2 6.52941 2 12C2 17.4608 6.53921 22 12 22Z" fill="#1E3548"/>
<path opacity="0.5" d="M8.55257 16.2863C8.08262 16.2863 7.71484 15.9078 7.71484 15.4374C7.71484 15.2123 7.79657 14.9975 7.96003 14.844L10.7899 12.0006L7.96003 9.16727C7.79657 9.00363 7.71484 8.79905 7.71484 8.57403C7.71484 8.09329 8.08262 7.7353 8.55257 7.7353C8.78754 7.7353 8.97144 7.81712 9.13489 7.97055L11.9852 10.8141L14.856 7.96032C15.0296 7.78644 15.2136 7.71484 15.4383 7.71484C15.9082 7.71484 16.2863 8.08306 16.2863 8.55357C16.2863 8.78883 16.2147 8.97294 16.0308 9.15705L13.1907 12.0006L16.0207 14.8339C16.1943 14.9873 16.276 15.202 16.276 15.4374C16.276 15.9078 15.898 16.2863 15.4179 16.2863C15.1829 16.2863 14.9683 16.2045 14.8151 16.0408L11.9852 13.1973L9.16554 16.0408C9.00209 16.2045 8.78754 16.2863 8.55257 16.2863Z" fill="#D2D6DA"/>
</g>
<defs>
<clipPath id="clip0_11727_43169">
<rect width="20" height="20" fill="white" transform="translate(2 2)"/>
</clipPath>
</defs>
</svg>
